<?xml version="1.0" encoding="UTF-8" standalone="no"?>
<svg
   xmlns:osb="http://www.openswatchbook.org/uri/2009/osb"
   xmlns:dc="http://purl.org/dc/elements/1.1/"
   xmlns:cc="http://creativecommons.org/ns#"
   xmlns:rdf="http://www.w3.org/1999/02/22-rdf-syntax-ns#"
   xmlns:svg="http://www.w3.org/2000/svg"
   xmlns="http://www.w3.org/2000/svg"
   xmlns:xlink="http://www.w3.org/1999/xlink"
   width="512"
   height="512"
   viewBox="0 0 480 479.99998"
   id="svg4240"
   version="1.1">
  <title
     id="title821">Yggdrasil icon</title>
  <defs
     id="defs4242">
    <linearGradient
       id="linearGradient2394">
      <stop
         id="stop2390"
         offset="0"
         style="stop-color:#00b08d;stop-opacity:1" />
      <stop
         id="stop2392"
         offset="1"
         style="stop-color:#9cffd0;stop-opacity:1" />
    </linearGradient>
    <linearGradient
       osb:paint="solid"
       id="linearGradient890">
      <stop
         id="stop888"
         offset="0"
         style="stop-color:#000000;stop-opacity:1;" />
    </linearGradient>
    <linearGradient
       gradientUnits="userSpaceOnUse"
       y2="-54.375"
       x2="328.125"
       y1="636.5625"
       x1="209.0625"
       id="linearGradient2396"
       xlink:href="#linearGradient2394" />
  </defs>
  <metadata
     id="metadata4245">
    <rdf:RDF>
      <cc:Work
         rdf:about="">
        <dc:format>image/svg+xml</dc:format>
        <dc:type
           rdf:resource="http://purl.org/dc/dcmitype/StillImage" />
        <dc:title>Yggdrasil icon</dc:title>
      </cc:Work>
    </rdf:RDF>
  </metadata>
  <g
     id="layer4">
    <rect
       y="-3.4333966e-006"
       x="0"
       height="480"
       width="480"
       id="rect858"
       style="opacity:1;fill-opacity:1;stroke-width:14.06249971;stroke:none;stroke-opacity:1;fill:url(#linearGradient2396);fill-rule:nonzero;stroke-miterlimit:4;stroke-dasharray:none" />
  </g>
  <g
     transform="translate(383.92494,-2.0934461)"
     id="layer1">
    <path
       id="path4918"
       d="m -316.54372,478.5395 c 1.21316,-4.9645 15.63671,-40.16088 28.33041,-69.13201 12.99199,-29.65184 12.74674,-28.48782 9.12735,-43.32513 -4.51791,-18.52061 -4.24349,-48.6732 0.58863,-64.68225 17.4451,-57.79632 62.7423,-96.96723 161.10122,-139.31287 32.0406,-13.79416 49.628621,-22.63987 62.974225,-31.67221 C -30.895873,114.49252 -6.4233937,86.86328 1.4011734,67.39117 3.0514106,63.284437 4.9061512,59.961561 5.5228048,60.007042 7.4460804,60.148863 6.4935839,118.36057 4.2361774,138.63934 -9.7470219,264.25331 -52.346001,345.95569 -122.48492,381.6831 c -40.47861,20.61904 -104.28894,28.25834 -134.01201,16.04381 -4.20289,-1.72715 -8.6265,-3.14028 -9.83032,-3.14028 -4.52629,0 -20.75651,43.33442 -25.41537,67.85879 -1.4463,7.61336 -3.63855,18.05581 -3.96338,19.64802 -7.24537,-0.0557 -0.46591,-0.0156 -10.77493,-0.0156 h -10.92743 z"
       style="fill:#ffffff;fill-opacity:1;stroke-width:1.31718552" />
  </g>
</svg>
